<svg xmlns="http://www.w3.org/2000/svg" xmlns:xlink="http://www.w3.org/1999/xlink" viewBox="0 0 674.07 416.01"><defs><linearGradient id="a" x1="0.51" y1="187.92" x2="176.9" y2="187.92" gradientUnits="userSpaceOnUse"><stop offset="0" stop-color="#cce0f4"/><stop offset="0.06" stop-color="#c3dcf2"/><stop offset="0.17" stop-color="#a9d2ee"/><stop offset="0.31" stop-color="#80c2e7"/><stop offset="0.46" stop-color="#47acde"/><stop offset="0.57" stop-color="#1e9cd7"/><stop offset="0.87" stop-color="#0075be"/><stop offset="0.99" stop-color="#005b97"/></linearGradient></defs><title>Asset 1</title><path d="M640.07,146.4c22.34,2.82,41.92,10.74,21.44,44.88-24,40,7,38,0,62s-24,29-12,50,47,46,1,51a42,42,0,0,1-17-1.82,109.5,109.5,0,0,0-6.25-33.76c-4.45-12.52-11.3-25.6-7.65-38.38,2.2-7.68,8-14,10.12-21.65,3.83-13.72-4.62-27.89-4.36-42.13.25-13.35,8-25.2,13.2-37.51C642.94,168.69,645.05,155.87,640.07,146.4Z" style="fill:#8b4300"/><path d="M337.9,209.51c24.82,6.28,31.49,27.37,17.61,34.77-5.58,3-14.2,3.88-23.29,4.71a62.62,62.62,0,0,1-1.05-8.62,18.21,18.21,0,0,1,.89-7.81c.89-2.19,2.49-4,3.74-6A21.42,21.42,0,0,0,337.9,209.51Z" style="fill:#ffad00"/><path d="M597.51,259.28c4.57,18.46-4.17,37.87-17.08,55.25-14.87-13.82-28.48-26.3-40.24-27.92a54.59,54.59,0,0,0,.32-22.33c-3.86-19.06-16.65-25.19-23-42-2.79-7.38-4.34-16.82-2.49-29a34.79,34.79,0,0,0,5.49-2c24-11.24,41.75-21,56-28.57-11.09,24.42-10.31,41.48-6,53.57C577.46,235.53,592.83,240.4,597.51,259.28Z" style="fill:#8d4300"/><path d="M227.86,26.85c-9-1-18-3.09-26.94-2.09a30.52,30.52,0,0,0-13.31,4.69c2.1-3.59,7.62-5.57,17.9-6.17,33.11-2,39.67,2.74,40,3h0l.06.14C239.87,27.71,233.72,27.53,227.86,26.85Z" style="fill:#ffad00"/><path d="M305.83,17.48a67.31,67.31,0,0,0-15-6.91c-7.62-2.25-16.24-2.29-23.12,1.7-5,2.89-8.69,7.65-13.59,10.71a27.34,27.34,0,0,1-8.57,3.44l-.06-.14h0c-.31-.51-11.51-19.07,23-25C288.73-2.19,300.27,6.36,305.83,17.48Z" style="fill:#ffad00"/><path d="M200.51,229.28c-10,40.37,37.22,59.58,37,103a69.11,69.11,0,0,1-3.46,21c-53.71-7.74-114.19-32.18-185.54-93,108.06-14.83,6.34-17.11-1.58-4.91a131.54,131.54,0,0,1-4.87-36.5c10.35-6.17,21.74-14.4,35.45-10.59,14.85,4.13,13.66,17.18,31,24,15.4,6.05,38.4,4.43,54-11,20.2-20,13.34-48.69,13-50L64.27,151.57c20.11-26.8,57.11-51.48,123.24-64.29q7.78-1.5,15.32-2.56c25,44.65,25.93,76.6,18.68,99.56C215.31,203.93,205.2,210.46,200.51,229.28Z" style="fill:#ff7e00"/><path d="M369.71,116.44c12.13,6.61,23.46,13.69,34.1,20.8a93.11,93.11,0,0,0-.3,25c4.15,33.07,24.16,43.82,22,72-1.95,25.37-19.21,30.14-25,53-3.37,13.3-2.47,31.21,10.8,55.18-2.53.29-5.13.57-7.8.82-13.62,1.29-27.42,3.24-41.53,5.24.7-4.56,1.53-9.32,2.53-14.24,9.66-47.63,23.15-54.64,20-81-.87-7.27-2-7.3-32-69-15.3-31.43-16.78-35.05-18-41-2.24-10.94-2.62-25,2.57-42.35a310.35,310.35,0,0,1,31.3,14.79Z" style="fill:#f54300"/><path d="M475.51,259.28c5.29,14.52,8.63,35.87.27,66.28-14.86,7.18-35,13.45-64.47,16.9-13.27-24-14.17-41.88-10.8-55.18,5.79-22.86,23.05-27.63,25-53,2.16-28.18-17.85-38.93-22-72a93.11,93.11,0,0,1,.3-25c7.05,4.7,13.79,9.41,20.26,14h0c11.6,8.23,22.33,16.07,32.35,22.76-4.51,11-6.84,22.93-4.92,35.27C454.72,229.84,467.55,237.41,475.51,259.28Z" style="fill:#924300"/><path d="M640.07,146.4c5,9.47,2.87,22.29-1.48,32.63-5.17,12.31-13,24.16-13.2,37.51-.26,14.24,8.19,28.41,4.36,42.13-2.15,7.69-7.92,14-10.12,21.65-3.65,12.78,3.2,25.86,7.65,38.38a109.5,109.5,0,0,1,6.25,33.76c-18.71-5.75-36.68-22.66-53.1-37.93,12.91-17.38,21.65-36.79,17.08-55.25-4.68-18.88-20-23.75-27-43-4.36-12.09-5.14-29.15,6-53.57,22.45-12,36.13-18.65,52-17.43C632.32,145.57,636.24,145.91,640.07,146.4Z" style="fill:#dd4300"/><path d="M427.36,400.59c.11,10-6.24,14.63-25.85,5.69-57-26-70,1-70,1-30.85,14.21-47.37,8.15-56.1-4.07,8.37-6.43,19.7-9.16,29.95-6.43,1.78.47,3.65,1.1,5.44.65,2.63-.66,4.14-3.31,5.91-5.36,6-6.94,16.26-7.76,25.41-8.08l32.8-1.15c3.88-.14,7.82-.27,11.6.63,7.1,1.68,12.83,6.73,19.15,10.39A52.24,52.24,0,0,0,427.36,400.59Z" style="fill:#ffad00"/><path d="M475.18,124.48a64.44,64.44,0,0,1-4.67,4.8c-22.32,20.83-39.22,22.5-46.43,22h0c-6.47-4.6-13.21-9.31-20.26-14-10.64-7.11-22-14.19-34.1-20.8l-14-9.47s-6.19-35.69,19.81-45.69c.39-.15.78-.3,1.16-.43,6.89,3.2,12.89,7.6,16.6,14.18,2.11,3.75,3.48,8.21,7,10.63,4.77,3.25,11.31,1.41,16.87,2.94,11.78,3.23,14.56,19.13,24.38,26.4,4.54,3.36,10.27,4.6,15.81,5.76Z" style="fill:#ff0f00"/><path d="M540.51,264.28a54.59,54.59,0,0,1-.32,22.33,16.43,16.43,0,0,0-7.68.67c-18.7,6.45-27.42,24.12-56.73,38.28,8.36-30.41,5-51.76-.27-66.28-8-21.87-20.79-29.44-24-50-1.92-12.34.41-24.28,4.92-35.27C478.8,189,497.69,198.18,515,193.32c-1.85,12.14-.3,21.58,2.49,29C523.86,239.09,536.65,245.22,540.51,264.28Z" style="fill:#f44300"/><path d="M427.36,400.59a52.24,52.24,0,0,1-21.69-6.73c-6.32-3.66-12.05-8.71-19.15-10.39-3.78-.9-7.72-.77-11.6-.63L342.12,384c-9.15.32-19.43,1.14-25.41,8.08-1.77,2.05-3.28,4.7-5.91,5.36-1.79.45-3.66-.18-5.44-.65-10.25-2.73-21.58,0-29.95,6.43-10.92-15.27-9.68-40.16-9.08-47.09,34.11,1.14,65.59-3.35,95.65-7.6,14.11-2,27.91-3.95,41.53-5.24C403.51,343.28,427.18,381.58,427.36,400.59Z" style="fill:#ff0f00"/><path d="M331.68,249c.41,1,.81,2,1.19,3-.24-1-.46-2-.65-3.06,9.09-.83,17.71-1.74,23.29-4.71,13.88-7.4,7.21-28.49-17.61-34.77a21.42,21.42,0,0,1-2.1,17.05c-1.25,2-2.85,3.81-3.74,6a18.21,18.21,0,0,0-.89,7.81,62.62,62.62,0,0,0,1.05,8.62ZM266.33,356.12a294.53,294.53,0,0,1-32.28-2.83,69.11,69.11,0,0,0,3.46-21c.22-43.42-47-62.63-37-103,4.69-18.82,14.8-25.35,21-45,7.25-23,6.33-54.91-18.68-99.56,3.4-.48,6.77-.9,10.09-1.24a0,0,0,0,1,0,0,256.2,256.2,0,0,1,71.25,2.2,258.85,258.85,0,0,1,52.89,15.25c-5.19,17.35-4.81,31.41-2.57,42.35,1.22,5.95,2.7,9.57,18,41,30,61.7,31.13,61.73,32,69,3.15,26.36-10.34,33.37-20,81-1,4.92-1.83,9.68-2.53,14.24C331.92,352.77,300.44,357.26,266.33,356.12Z" style="fill:#7a4300"/><path d="M305.83,17.48a41.59,41.59,0,0,1,3.68,24.8c-2.15,12.2-17.07,32.77-25.32,43.4a256.2,256.2,0,0,0-71.25-2.2,0,0,0,0,0,0,0l-1.41-.2c-15.35-28.61-28.75-45.53-23.9-53.83a30.52,30.52,0,0,1,13.31-4.69c9-1,18,1,26.94,2.09,5.86.68,12,.86,17.71-.43A27.34,27.34,0,0,0,254.14,23c4.9-3.06,8.59-7.82,13.59-10.71,6.88-4,15.5-3.95,23.12-1.7A67.31,67.31,0,0,1,305.83,17.48Z" style="fill:#ff0f00"/><path d="M475.18,124.48l-17.81-3.72c-5.54-1.16-11.27-2.4-15.81-5.76-9.82-7.27-12.6-23.17-24.38-26.4-5.56-1.53-12.1.31-16.87-2.94-3.56-2.42-4.93-6.88-7-10.63-3.71-6.58-9.71-11-16.6-14.18,25.05-9.18,31.84,3.43,31.84,3.43,42-7,0,10,29,18C464.79,89.81,496.5,100,475.18,124.48Z" style="fill:#ffad00"/><path d="M175.51,171.28c.34,1.31,7.2,30-13,50-15.6,15.43-38.6,17.05-54,11-17.34-6.82-16.15-19.87-31-24-13.71-3.81-25.1,4.42-35.45,10.59-6.85,4.08-13.24,7.26-19.55,5.41-11.06-3.24-21.46-21.83-22-84l63.76,11.29Z" style="fill:url(#a)"/><path d="M48.5,260.27c-.06-.16-.7-1.89-1.57-4.9a131.54,131.54,0,0,1-4.87-36.5" style="fill:none;stroke:#000;stroke-miterlimit:10"/><path d="M424.08,151.25c11.6,8.23,22.33,16.07,32.35,22.76C478.8,189,497.69,198.18,515,193.32a34.79,34.79,0,0,0,5.49-2c24-11.24,41.75-21,56-28.57,22.45-12,36.13-18.65,52-17.43,3.81.29,7.73.63,11.56,1.12,22.34,2.82,41.92,10.74,21.44,44.88-24,40,7,38,0,62s-24,29-12,50,47,46,1,51a42,42,0,0,1-17-1.82c-18.71-5.75-36.68-22.66-53.1-37.93-14.87-13.82-28.48-26.3-40.24-27.92a16.43,16.43,0,0,0-7.68.67c-18.7,6.45-27.42,24.12-56.73,38.28-14.86,7.18-35,13.45-64.47,16.9-2.53.29-5.13.57-7.8.82-13.62,1.29-27.42,3.24-41.53,5.24-30.06,4.25-61.54,8.74-95.65,7.6a294.53,294.53,0,0,1-32.28-2.83c-53.71-7.74-114.19-32.18-185.54-93h0c-2.15-1.83-2.51-3.47-1.57-4.9,7.92-12.2,109.64-9.92,1.58,4.91" style="fill:none;stroke:#000;stroke-miterlimit:10"/><path d="M212.94,83.48a256.2,256.2,0,0,1,71.25,2.2,258.85,258.85,0,0,1,52.89,15.25,310.35,310.35,0,0,1,31.3,14.79l1.33.72c12.13,6.61,23.46,13.69,34.1,20.8,7.05,4.7,13.79,9.41,20.26,14" style="fill:none;stroke:#000;stroke-miterlimit:10"/><path d="M64.27,151.57c20.11-26.8,57.11-51.48,123.24-64.29q7.78-1.5,15.32-2.56c3.4-.48,6.77-.9,10.09-1.24" style="fill:none;stroke:#000;stroke-miterlimit:10"/><path d="M369.71,116.44l-14-9.47s-6.19-35.69,19.81-45.69c.39-.15.78-.3,1.16-.43,25.05-9.18,31.84,3.43,31.84,3.43,42-7,0,10,29,18,27.28,7.53,59,17.71,37.67,42.2a64.44,64.44,0,0,1-4.67,4.8c-22.32,20.83-39.22,22.5-46.43,22h0" style="fill:none;stroke:#000;stroke-miterlimit:10"/><path d="M245.51,26.28h0c-.31-.51-11.51-19.07,23-25,20.22-3.47,31.76,5.08,37.32,16.2a41.59,41.59,0,0,1,3.68,24.8c-2.15,12.2-17.07,32.77-25.32,43.4" style="fill:none;stroke:#000;stroke-miterlimit:10"/><path d="M212.94,83.48a0,0,0,0,0,0,0l-1.41-.2c-15.35-28.61-28.75-45.53-23.9-53.83,2.1-3.59,7.62-5.57,17.9-6.17,33.11-2,39.67,2.74,40,3" style="fill:none;stroke:#000;stroke-miterlimit:10"/><path d="M266.51,354.28s-.08.66-.18,1.84c-.6,6.93-1.84,31.82,9.08,47.09,8.73,12.22,25.25,18.28,56.1,4.07,0,0,13-27,70-1,19.61,8.94,26,4.28,25.85-5.69-.18-19-23.85-57.31-23.85-57.31" style="fill:none;stroke:#000;stroke-miterlimit:10"/><path d="M276.51,178.28c57,1,25,26,55,30a54,54,0,0,1,6.39,1.23c24.82,6.28,31.49,27.37,17.61,34.77-5.58,3-14.2,3.88-23.29,4.71l-.54,0c-15.21,1.38-31.58,2.69-37.17,13.24-9,17-31,13-28,5s-18-31-18-31" style="fill:none;stroke:#000;stroke-miterlimit:10"/><path d="M640.07,146.4c5,9.47,2.87,22.29-1.48,32.63-5.17,12.31-13,24.16-13.2,37.51-.26,14.24,8.19,28.41,4.36,42.13-2.15,7.69-7.92,14-10.12,21.65-3.65,12.78,3.2,25.86,7.65,38.38a109.5,109.5,0,0,1,6.25,33.76" style="fill:none;stroke:#000;stroke-miterlimit:10"/><path d="M376.67,60.85c6.89,3.2,12.89,7.6,16.6,14.18,2.11,3.75,3.48,8.21,7,10.63,4.77,3.25,11.31,1.41,16.87,2.94,11.78,3.23,14.56,19.13,24.38,26.4,4.54,3.36,10.27,4.6,15.81,5.76l17.81,3.72" style="fill:none;stroke:#000;stroke-miterlimit:10"/><path d="M187.61,29.45a30.52,30.52,0,0,1,13.31-4.69c9-1,18,1,26.94,2.09,5.86.68,12,.86,17.71-.43A27.34,27.34,0,0,0,254.14,23c4.9-3.06,8.59-7.82,13.59-10.71,6.88-4,15.5-3.95,23.12-1.7a67.31,67.31,0,0,1,15,6.91" style="fill:none;stroke:#000;stroke-miterlimit:10"/><path d="M275.41,403.21c8.37-6.43,19.7-9.16,29.95-6.43,1.78.47,3.65,1.1,5.44.65,2.63-.66,4.14-3.31,5.91-5.36,6-6.94,16.26-7.76,25.41-8.08l32.8-1.15c3.88-.14,7.82-.27,11.6.63,7.1,1.68,12.83,6.73,19.15,10.39a52.24,52.24,0,0,0,21.69,6.73" style="fill:none;stroke:#000;stroke-miterlimit:10"/><path d="M337.9,209.51a21.42,21.42,0,0,1-2.1,17.05c-1.25,2-2.85,3.81-3.74,6a18.21,18.21,0,0,0-.89,7.81,62.62,62.62,0,0,0,1.05,8.62c.19,1,.41,2,.65,3.06" style="fill:none;stroke:#000;stroke-miterlimit:10"/><path d="M202.83,84.72c25,44.65,25.93,76.6,18.68,99.56-6.2,19.65-16.31,26.18-21,45-10,40.37,37.22,59.58,37,103a69.11,69.11,0,0,1-3.46,21" style="fill:none;stroke:#000;stroke-miterlimit:10"/><path d="M331.68,249c.41,1,.81,2,1.19,3" style="fill:none;stroke:#000;stroke-miterlimit:10"/><path d="M337.08,100.93c-5.19,17.35-4.81,31.41-2.57,42.35,1.22,5.95,2.7,9.57,18,41,30,61.7,31.13,61.73,32,69,3.15,26.36-10.34,33.37-20,81-1,4.92-1.83,9.68-2.53,14.24" style="fill:none;stroke:#000;stroke-miterlimit:10"/><path d="M411.31,342.46c-13.27-24-14.17-41.88-10.8-55.18,5.79-22.86,23.05-27.63,25-53,2.16-28.18-17.85-38.93-22-72a93.11,93.11,0,0,1,.3-25" style="fill:none;stroke:#000;stroke-miterlimit:10"/><path d="M456.43,174c-4.51,11-6.84,22.93-4.92,35.27,3.21,20.56,16,28.13,24,50,5.29,14.52,8.63,35.87.27,66.28" style="fill:none;stroke:#000;stroke-miterlimit:10"/><path d="M515,193.32c-1.85,12.14-.3,21.58,2.49,29,6.35,16.81,19.14,22.94,23,42a54.59,54.59,0,0,1-.32,22.33" style="fill:none;stroke:#000;stroke-miterlimit:10"/><path d="M576.46,162.71c-11.09,24.42-10.31,41.48-6,53.57,7,19.25,22.32,24.12,27,43,4.57,18.46-4.17,37.87-17.08,55.25" style="fill:none;stroke:#000;stroke-miterlimit:10"/><path d="M64.27,151.57.51,140.28c.54,62.17,10.94,80.76,22,84,6.31,1.85,12.7-1.33,19.55-5.41,10.35-6.17,21.74-14.4,35.45-10.59,14.85,4.13,13.66,17.18,31,24,15.4,6.05,38.4,4.43,54-11,20.2-20,13.34-48.69,13-50Z" style="fill:none;stroke:#000;stroke-miterlimit:10"/></svg>