<?xml version="1.0" encoding="utf-8"?>
<!-- Generator: Adobe Illustrator 23.0.4, SVG Export Plug-In . SVG Version: 6.00 Build 0)  -->
<svg version="1.1" id="Layer_2" xmlns="http://www.w3.org/2000/svg" xmlns:xlink="http://www.w3.org/1999/xlink" x="0px" y="0px"
	 viewBox="0 0 1920 1080" style="enable-background:new 0 0 1920 1080;" xml:space="preserve">
<style type="text/css">
	.st0{fill:#8B4300;}
	.st1{fill:#FFAD00;}
	.st2{fill:#8D4300;}
	.st3{fill:#FF7E00;}
	.st4{fill:#F54300;}
	.st5{fill:#924300;}
	.st6{fill:#DD4300;}
	.st7{fill:#FF0F00;}
	.st8{fill:#F44300;}
	.st9{fill:#7A4300;}
	.st10{fill:url(#SVGID_1_);}
	.st11{fill:none;stroke:#000000;stroke-miterlimit:10;}
</style>
<g>
	<g id="XMLID_1_">
		<g>
			<path class="st0" d="M474.7,91.4c8.2,1,15.4,3.9,7.9,16.5c-8.8,14.7,2.6,14,0,22.8c-2.6,8.8-8.8,10.7-4.4,18.4
				c4.4,7.7,17.3,16.9,0.4,18.8c-2.1,0.2-4.2,0-6.2-0.7c-0.1-4.2-0.9-8.4-2.3-12.4c-1.6-4.6-4.2-9.4-2.8-14.1c0.8-2.8,2.9-5.1,3.7-8
				c1.4-5-1.7-10.3-1.6-15.5c0.1-4.9,3-9.3,4.9-13.8C475.7,99.6,476.5,94.9,474.7,91.4z"/>
			<path class="st1" d="M363.6,114.6c9.1,2.3,11.6,10.1,6.5,12.8c-2.1,1.1-5.2,1.4-8.6,1.7c-0.2-1-0.3-2.1-0.4-3.2
				c-0.1-1,0-2,0.3-2.9c0.3-0.8,0.9-1.5,1.4-2.2C363.9,119,364.2,116.7,363.6,114.6z"/>
			<path class="st2" d="M459,132.9c1.7,6.8-1.5,13.9-6.3,20.3c-5.5-5.1-10.5-9.7-14.8-10.3c0.6-2.6,0.7-5.4,0.1-8.2
				c-1.4-7-6.1-9.3-8.5-15.4c-1-2.7-1.6-6.2-0.9-10.6c0.7-0.2,1.3-0.4,2-0.8c8.8-4.1,15.4-7.7,20.6-10.5c-4.1,9-3.8,15.3-2.2,19.7
				C451.7,124.1,457.3,125.9,459,132.9z"/>
			<path class="st1" d="M323.1,47.4c-3.3-0.4-6.6-1.1-9.9-0.8c-1.7,0.2-3.5,0.8-4.9,1.7c0.8-1.3,2.8-2,6.6-2.3
				c12.2-0.7,14.6,1,14.7,1.1c0,0,0,0,0,0l0,0.1C327.5,47.7,325.3,47.7,323.1,47.4z"/>
			<path class="st1" d="M351.8,44c-1.8-1-3.6-2-5.5-2.5c-2.8-0.8-6-0.8-8.5,0.6c-1.8,1.1-3.2,2.8-5,3.9c-1,0.6-2,1-3.2,1.3l0-0.1
				c0,0,0,0,0,0c-0.1-0.2-4.2-7,8.5-9.2C345.5,36.7,349.7,39.9,351.8,44z"/>
			<path class="st3" d="M313,121.8c-3.7,14.8,13.7,21.9,13.6,37.9c0,2.1-0.3,4.7-1.3,7.7c-19.8-2.8-42-11.8-68.2-34.2
				c39.7-5.5,2.3-6.3-0.6-1.8c-0.7-2.5-1.8-7.4-1.8-13.4c3.8-2.3,8-5.3,13-3.9c5.5,1.5,5,6.3,11.4,8.8c5.7,2.2,14.1,1.6,19.9-4
				c7.4-7.4,4.9-17.9,4.8-18.4c-13.6-2.4-27.3-4.8-40.9-7.2c7.4-9.9,21-18.9,45.3-23.6c1.9-0.4,3.8-0.7,5.6-0.9
				c9.2,16.4,9.5,28.2,6.9,36.6C318.5,112.5,314.8,114.9,313,121.8z"/>
			<path class="st4" d="M375.3,80.4c4.5,2.4,8.6,5,12.5,7.6c-0.4,2.9-0.5,5.9-0.1,9.2c1.5,12.2,8.9,16.1,8.1,26.5
				c-0.7,9.3-7.1,11.1-9.2,19.5c-1.2,4.9-0.9,11.5,4,20.3c-0.9,0.1-1.9,0.2-2.9,0.3c-5,0.5-10.1,1.2-15.3,1.9
				c0.3-1.7,0.6-3.4,0.9-5.2c3.6-17.5,8.5-20.1,7.4-29.8c-0.3-2.7-0.7-2.7-11.8-25.4c-5.6-11.6-6.2-12.9-6.6-15.1
				c-0.8-4-1-9.2,0.9-15.6c4,1.6,7.9,3.5,11.5,5.4C374.9,80.2,375.1,80.3,375.3,80.4z"/>
			<path class="st5" d="M414.2,132.9c1.9,5.3,3.2,13.2,0.1,24.4c-5.5,2.6-12.9,4.9-23.7,6.2c-4.9-8.8-5.2-15.4-4-20.3
				c2.1-8.4,8.5-10.2,9.2-19.5c0.8-10.4-6.6-14.3-8.1-26.5c-0.4-3.3-0.3-6.4,0.1-9.2c2.6,1.7,5.1,3.5,7.5,5.2c0,0,0,0,0,0
				c4.3,3,8.2,5.9,11.9,8.4c-1.7,4-2.5,8.4-1.8,13C406.5,122.1,411.2,124.8,414.2,132.9z"/>
			<path class="st6" d="M474.7,91.4c1.8,3.5,1.1,8.2-0.5,12c-1.9,4.5-4.8,8.9-4.9,13.8c-0.1,5.2,3,10.4,1.6,15.5
				c-0.8,2.8-2.9,5.1-3.7,8c-1.3,4.7,1.2,9.5,2.8,14.1c1.4,4,2.2,8.2,2.3,12.4c-6.9-2.1-13.5-8.3-19.5-13.9c4.7-6.4,8-13.5,6.3-20.3
				c-1.7-6.9-7.4-8.7-9.9-15.8c-1.6-4.4-1.9-10.7,2.2-19.7c8.3-4.4,13.3-6.9,19.1-6.4C471.8,91.1,473.3,91.2,474.7,91.4z"/>
			<path class="st1" d="M396.5,184.8c0,3.7-2.3,5.4-9.5,2.1c-21-9.6-25.7,0.4-25.7,0.4c-11.3,5.2-17.4,3-20.6-1.5
				c3.1-2.4,7.2-3.4,11-2.4c0.7,0.2,1.3,0.4,2,0.2c1-0.2,1.5-1.2,2.2-2c2.2-2.6,6-2.9,9.3-3c4-0.1,8-0.3,12.1-0.4
				c1.4-0.1,2.9-0.1,4.3,0.2c2.6,0.6,4.7,2.5,7,3.8C390.9,183.8,393.7,184.6,396.5,184.8z"/>
			<path class="st7" d="M414,83.3c-0.5,0.6-1.1,1.2-1.7,1.8c-8.2,7.7-14.4,8.3-17.1,8.1c0,0,0,0,0,0c-2.4-1.7-4.9-3.4-7.5-5.2
				c-3.9-2.6-8.1-5.2-12.5-7.6l-5.2-3.5c0,0-2.3-13.1,7.3-16.8c0.1-0.1,0.3-0.1,0.4-0.2c2.5,1.2,4.7,2.8,6.1,5.2
				c0.8,1.4,1.3,3,2.6,3.9c1.8,1.2,4.2,0.5,6.2,1.1c4.3,1.2,5.4,7,9,9.7c1.7,1.2,3.8,1.7,5.8,2.1C409.7,82.4,411.9,82.8,414,83.3z"
				/>
			<path class="st8" d="M438.1,134.7c0.6,2.8,0.4,5.6-0.1,8.2c-1-0.1-1.9-0.1-2.8,0.2c-6.9,2.4-10.1,8.9-20.9,14.1
				c3.1-11.2,1.8-19-0.1-24.4c-2.9-8-7.6-10.8-8.8-18.4c-0.7-4.5,0.2-8.9,1.8-13c8.2,5.5,15.2,8.9,21.5,7.1
				c-0.7,4.5-0.1,7.9,0.9,10.6C431.9,125.5,436.7,127.7,438.1,134.7z"/>
			<path class="st7" d="M396.5,184.8c-2.8-0.2-5.5-1.1-8-2.5c-2.3-1.3-4.4-3.2-7-3.8c-1.4-0.3-2.8-0.3-4.3-0.2
				c-4,0.1-8,0.3-12.1,0.4c-3.4,0.1-7.1,0.4-9.3,3c-0.7,0.8-1.2,1.7-2.2,2c-0.7,0.2-1.3-0.1-2-0.2c-3.8-1-7.9,0-11,2.4
				c-4-5.6-3.6-14.8-3.3-17.3c12.5,0.4,24.1-1.2,35.2-2.8c5.2-0.7,10.3-1.5,15.3-1.9C387.7,163.8,396.4,177.9,396.5,184.8z"/>
			<path class="st9" d="M361.3,129.1c0.2,0.4,0.3,0.7,0.4,1.1c-0.1-0.4-0.2-0.8-0.2-1.1c3.3-0.3,6.5-0.6,8.6-1.7
				c5.1-2.7,2.7-10.5-6.5-12.8c0.6,2.1,0.4,4.4-0.8,6.3c-0.5,0.7-1,1.4-1.4,2.2c-0.4,0.9-0.4,1.9-0.3,2.9c0.1,1.1,0.2,2.1,0.4,3.2
				C361.4,129.1,361.3,129.1,361.3,129.1z M337.2,168.5c-3.9-0.1-7.8-0.5-11.9-1c1-3,1.3-5.6,1.3-7.7c0.1-16-17.3-23-13.6-37.9
				c1.7-6.9,5.4-9.3,7.7-16.5c2.7-8.4,2.3-20.2-6.9-36.6c1.3-0.2,2.5-0.3,3.7-0.5c0,0,0,0,0,0c9.5-1,18.2-0.6,26.2,0.8
				c7,1.2,13.5,3.2,19.4,5.6c-1.9,6.4-1.8,11.6-0.9,15.6c0.4,2.2,1,3.5,6.6,15.1c11,22.7,11.4,22.7,11.8,25.4
				c1.2,9.7-3.8,12.3-7.4,29.8c-0.4,1.8-0.7,3.6-0.9,5.2C361.4,167.3,349.8,168.9,337.2,168.5z"/>
			<path class="st7" d="M351.8,44c1.5,3,1.8,6.5,1.4,9.1c-0.8,4.5-6.3,12.1-9.3,16c-8-1.4-16.7-1.8-26.2-0.8c0,0,0,0,0,0l-0.5-0.1
				c-5.6-10.5-10.6-16.7-8.8-19.8c1.4-1,3.2-1.5,4.9-1.7c3.3-0.4,6.6,0.4,9.9,0.8c2.2,0.3,4.4,0.3,6.5-0.2c1.1-0.3,2.2-0.7,3.2-1.3
				c1.8-1.1,3.2-2.9,5-3.9c2.5-1.5,5.7-1.5,8.5-0.6C348.2,42,350,42.9,351.8,44z"/>
			<path class="st1" d="M414,83.3c-2.2-0.5-4.4-0.9-6.5-1.4c-2-0.4-4.1-0.9-5.8-2.1c-3.6-2.7-4.6-8.5-9-9.7c-2-0.6-4.4,0.1-6.2-1.1
				c-1.3-0.9-1.8-2.5-2.6-3.9c-1.4-2.4-3.6-4-6.1-5.2c9.2-3.4,11.7,1.3,11.7,1.3c15.4-2.6,0,3.7,10.7,6.6
				C410.2,70.6,421.9,74.3,414,83.3z"/>
			<linearGradient id="SVGID_1_" gradientUnits="userSpaceOnUse" x1="239.5" y1="106.6361" x2="304.3633" y2="106.6361">
				<stop  offset="0" style="stop-color:#CCE0F4"/>
				<stop  offset="6.405089e-02" style="stop-color:#C3DCF2"/>
				<stop  offset="0.1706" style="stop-color:#A9D2EE"/>
				<stop  offset="0.3066" style="stop-color:#80C2E7"/>
				<stop  offset="0.4649" style="stop-color:#47ACDE"/>
				<stop  offset="0.5674" style="stop-color:#1E9CD7"/>
				<stop  offset="0.8652" style="stop-color:#0075BE"/>
				<stop  offset="0.9944" style="stop-color:#005B97"/>
			</linearGradient>
			<path class="st10" d="M303.9,100.5c0.1,0.5,2.6,11-4.8,18.4c-5.7,5.7-14.2,6.3-19.9,4c-6.4-2.5-5.9-7.3-11.4-8.8
				c-5-1.4-9.2,1.6-13,3.9c-2.5,1.5-4.9,2.7-7.2,2c-4.1-1.2-7.9-8-8.1-30.9c7.8,1.4,15.6,2.8,23.4,4.2
				C276.6,95.7,290.2,98.1,303.9,100.5z"/>
		</g>
		<g>
			<path class="st11" d="M257.1,133.2c0-0.1-0.3-0.7-0.6-1.8c-0.7-2.5-1.8-7.4-1.8-13.4"/>
			<path class="st11" d="M395.3,93.2c4.3,3,8.2,5.9,11.9,8.4c8.2,5.5,15.2,8.9,21.5,7.1c0.7-0.2,1.3-0.4,2-0.8
				c8.8-4.1,15.4-7.7,20.6-10.5c8.3-4.4,13.3-6.9,19.1-6.4c1.4,0.1,2.8,0.2,4.3,0.4c8.2,1,15.4,3.9,7.9,16.5
				c-8.8,14.7,2.6,14,0,22.8c-2.6,8.8-8.8,10.7-4.4,18.4c4.4,7.7,17.3,16.9,0.4,18.8c-2.1,0.2-4.2,0-6.2-0.7
				c-6.9-2.1-13.5-8.3-19.5-13.9c-5.5-5.1-10.5-9.7-14.8-10.3c-1-0.1-1.9-0.1-2.8,0.2c-6.9,2.4-10.1,8.9-20.9,14.1
				c-5.5,2.6-12.9,4.9-23.7,6.2c-0.9,0.1-1.9,0.2-2.9,0.3c-5,0.5-10.1,1.2-15.3,1.9c-11.1,1.6-22.6,3.2-35.2,2.8
				c-3.9-0.1-7.8-0.5-11.9-1c-19.8-2.8-42-11.8-68.2-34.2l0,0c-0.8-0.7-0.9-1.3-0.6-1.8c2.9-4.5,40.3-3.6,0.6,1.8"/>
			<path class="st11" d="M317.6,68.2c9.5-1,18.2-0.6,26.2,0.8c7,1.2,13.5,3.2,19.4,5.6c4,1.6,7.9,3.5,11.5,5.4
				c0.2,0.1,0.3,0.2,0.5,0.3c4.5,2.4,8.6,5,12.5,7.6c2.6,1.7,5.1,3.5,7.5,5.2"/>
			<path class="st11" d="M262.9,93.3c7.4-9.9,21-18.9,45.3-23.6c1.9-0.4,3.8-0.7,5.6-0.9c1.3-0.2,2.5-0.3,3.7-0.5"/>
			<path class="st11" d="M375.3,80.4l-5.2-3.5c0,0-2.3-13.1,7.3-16.8c0.1-0.1,0.3-0.1,0.4-0.2c9.2-3.4,11.7,1.3,11.7,1.3
				c15.4-2.6,0,3.7,10.7,6.6c10,2.8,21.7,6.5,13.9,15.5c-0.5,0.6-1.1,1.2-1.7,1.8c-8.2,7.7-14.4,8.3-17.1,8.1c0,0,0,0,0,0"/>
			<path class="st11" d="M329.6,47.2C329.6,47.2,329.6,47.2,329.6,47.2c-0.1-0.2-4.2-7,8.5-9.2c7.4-1.3,11.7,1.9,13.7,6
				c1.5,3,1.8,6.5,1.4,9.1c-0.8,4.5-6.3,12.1-9.3,16"/>
			<path class="st11" d="M317.6,68.2C317.6,68.2,317.6,68.2,317.6,68.2l-0.5-0.1c-5.6-10.5-10.6-16.7-8.8-19.8
				c0.8-1.3,2.8-2,6.6-2.3c12.2-0.7,14.6,1,14.7,1.1"/>
			<path class="st11" d="M337.3,167.8c0,0,0,0.2-0.1,0.7c-0.2,2.5-0.7,11.7,3.3,17.3c3.2,4.5,9.3,6.7,20.6,1.5c0,0,4.8-9.9,25.7-0.4
				c7.2,3.3,9.5,1.6,9.5-2.1c-0.1-7-8.8-21.1-8.8-21.1"/>
			<path class="st11" d="M341,103.1c21,0.4,9.2,9.6,20.2,11c0.8,0.1,1.6,0.3,2.3,0.5c9.1,2.3,11.6,10.1,6.5,12.8
				c-2.1,1.1-5.2,1.4-8.6,1.7c-0.1,0-0.1,0-0.2,0c-5.6,0.5-11.6,1-13.7,4.9c-3.3,6.3-11.4,4.8-10.3,1.8s-6.6-11.4-6.6-11.4"/>
			<path class="st11" d="M474.7,91.4c1.8,3.5,1.1,8.2-0.5,12c-1.9,4.5-4.8,8.9-4.9,13.8c-0.1,5.2,3,10.4,1.6,15.5
				c-0.8,2.8-2.9,5.1-3.7,8c-1.3,4.7,1.2,9.5,2.8,14.1c1.4,4,2.2,8.2,2.3,12.4"/>
			<path class="st11" d="M377.8,59.9c2.5,1.2,4.7,2.8,6.1,5.2c0.8,1.4,1.3,3,2.6,3.9c1.8,1.2,4.2,0.5,6.2,1.1c4.3,1.2,5.4,7,9,9.7
				c1.7,1.2,3.8,1.7,5.8,2.1c2.2,0.5,4.4,0.9,6.5,1.4"/>
			<path class="st11" d="M308.3,48.4c1.4-1,3.2-1.5,4.9-1.7c3.3-0.4,6.6,0.4,9.9,0.8c2.2,0.3,4.4,0.3,6.5-0.2
				c1.1-0.3,2.2-0.7,3.2-1.3c1.8-1.1,3.2-2.9,5-3.9c2.5-1.5,5.7-1.5,8.5-0.6c1.9,0.6,3.8,1.5,5.5,2.5"/>
			<path class="st11" d="M340.6,185.8c3.1-2.4,7.2-3.4,11-2.4c0.7,0.2,1.3,0.4,2,0.2c1-0.2,1.5-1.2,2.2-2c2.2-2.6,6-2.9,9.3-3
				c4-0.1,8-0.3,12.1-0.4c1.4-0.1,2.9-0.1,4.3,0.2c2.6,0.6,4.7,2.5,7,3.8c2.4,1.4,5.2,2.2,8,2.5"/>
			<path class="st11" d="M363.6,114.6c0.6,2.1,0.4,4.4-0.8,6.3c-0.5,0.7-1,1.4-1.4,2.2c-0.4,0.9-0.4,1.9-0.3,2.9
				c0.1,1.1,0.2,2.1,0.4,3.2c0.1,0.4,0.2,0.8,0.2,1.1"/>
			<path class="st11" d="M313.9,68.7c9.2,16.4,9.5,28.2,6.9,36.6c-2.3,7.2-6,9.6-7.7,16.5c-3.7,14.8,13.7,21.9,13.6,37.9
				c0,2.1-0.3,4.7-1.3,7.7"/>
			<path class="st11" d="M361.3,129.1c0.2,0.4,0.3,0.7,0.4,1.1"/>
			<path class="st11" d="M363.3,74.6c-1.9,6.4-1.8,11.6-0.9,15.6c0.4,2.2,1,3.5,6.6,15.1c11,22.7,11.4,22.7,11.8,25.4
				c1.2,9.7-3.8,12.3-7.4,29.8c-0.4,1.8-0.7,3.6-0.9,5.2"/>
			<path class="st11" d="M390.6,163.5c-4.9-8.8-5.2-15.4-4-20.3c2.1-8.4,8.5-10.2,9.2-19.5c0.8-10.4-6.6-14.3-8.1-26.5
				c-0.4-3.3-0.3-6.4,0.1-9.2"/>
			<path class="st11" d="M407.2,101.5c-1.7,4-2.5,8.4-1.8,13c1.2,7.6,5.9,10.3,8.8,18.4c1.9,5.3,3.2,13.2,0.1,24.4"/>
			<path class="st11" d="M428.7,108.6c-0.7,4.5-0.1,7.9,0.9,10.6c2.3,6.2,7,8.4,8.5,15.4c0.6,2.8,0.4,5.6-0.1,8.2"/>
			<path class="st11" d="M451.3,97.4c-4.1,9-3.8,15.3-2.2,19.7c2.6,7.1,8.2,8.9,9.9,15.8c1.7,6.8-1.5,13.9-6.3,20.3"/>
			<path class="st11" d="M262.9,93.3c-7.8-1.4-15.6-2.8-23.4-4.2c0.2,22.9,4,29.7,8.1,30.9c2.3,0.7,4.7-0.5,7.2-2
				c3.8-2.3,8-5.3,13-3.9c5.5,1.5,5,6.3,11.4,8.8c5.7,2.2,14.1,1.6,19.9-4c7.4-7.4,4.9-17.9,4.8-18.4
				C290.2,98.1,276.6,95.7,262.9,93.3z"/>
		</g>
	</g>
</g>
</svg>
